<?xml version="1.0" encoding="UTF-8"?>
<!DOCTYPE svg PUBLIC "-//W3C//DTD SVG 1.0//EN" "http://www.w3.org/TR/2001/REC-SVG-20010904/DTD/svg10.dtd">
<!-- Creator: CorelDRAW 2026 -->
<svg xmlns="http://www.w3.org/2000/svg" xml:space="preserve" width="0.75848cm" height="0.61736cm" version="1.0" style="shape-rendering:geometricPrecision; text-rendering:geometricPrecision; image-rendering:optimizeQuality; fill-rule:evenodd; clip-rule:evenodd"
viewBox="0 0 0.00719 0.00585"
 xmlns:xlink="http://www.w3.org/1999/xlink"
 xmlns:xodm="http://www.corel.com/coreldraw/odm/2003">
 <defs>
  <style type="text/css">
   <![CDATA[
    .fil0 {fill:black;fill-rule:nonzero}
   ]]>
  </style>
 </defs>
 <g id="Camada_x0020_1">
  <metadata id="CorelCorpID_0Corel-Layer"/>
  <path class="fil0" d="M0.00455 0.0005l-0.00191 0c-0.00035,0 -0.00067,0.00014 -0.00094,0.00037 -0.00028,0.00025 -0.0005,0.0006 -0.00062,0.00102l-0 0c-0.00006,0.00023 -0.0001,0.00034 -0.00005,0.0004 0.00001,0.00002 0.00003,0.00003 0.00007,0.00003 0.00006,0.00001 0.00016,0.00001 0.00029,0.00001l0.00007 0 0.0043 0 0.00007 0c0.00022,-0 0.00033,-0 0.00035,-0.00005 0.00002,-0.00003 0.00002,-0.00005 0.00002,-0.00009 -0.00001,-0.00007 -0.00004,-0.00018 -0.00007,-0.00031 -0.00012,-0.00042 -0.00034,-0.00077 -0.00062,-0.00102l-0.00001 -0.00001c-0.00026,-0.00023 -0.00058,-0.00036 -0.00093,-0.00036zm-0.00162 0.00109c0,0.00009 -0.00004,0.00017 -0.0001,0.00024l-0 0c-0.00006,0.00006 -0.00014,0.0001 -0.00024,0.0001 -0.00009,0 -0.00017,-0.00004 -0.00024,-0.0001l-0 -0c-0.00006,-0.00006 -0.0001,-0.00014 -0.0001,-0.00024 0,-0.00009 0.00004,-0.00017 0.0001,-0.00024l0 -0c0.00006,-0.00006 0.00014,-0.0001 0.00024,-0.0001 0.00009,0 0.00017,0.00004 0.00024,0.0001l0 0c0.00006,0.00006 0.0001,0.00014 0.0001,0.00024zm0.00149 -0.00051c0.0001,-0.0001 0.00026,-0.0001 0.00035,-0 0.0001,0.0001 0.0001,0.00026 0,0.00035l-0.00033 0.00033c-0.0001,0.0001 -0.00026,0.0001 -0.00035,0 -0.0001,-0.0001 -0.0001,-0.00026 -0,-0.00035l0.00033 -0.00033zm0.0015 0.0026l0.00002 -0 0.00033 0c0.00012,0 0.00022,-0.00005 0.0003,-0.00012 0.00008,-0.00008 0.00012,-0.00018 0.00012,-0.0003 0,-0.00012 -0.00005,-0.00022 -0.00012,-0.0003l-0.00001 -0.00001c-0.00007,-0.00007 -0.00017,-0.00011 -0.00029,-0.00011l-0.00047 0 -0.00002 0 -0.00002 0 -0.00002 0 -0.00203 0 -0.00042 0.00049c-0.00029,0.00033 -0.00043,0.0005 -0.0007,0.0005 -0.00015,0 -0.00026,-0.00006 -0.00039,-0.00017 -0.00009,-0.00008 -0.00018,-0.00019 -0.00031,-0.00034l-0.00042 -0.00049 -0.00003 0 -0.00001 0 -0.00001 0 -0.00001 0 -0.00001 0 -0.00001 0 -0.00001 0 -0.00001 0 -0.00047 0c-0.00012,0 -0.00022,0.00005 -0.0003,0.00012 -0.00008,0.00008 -0.00012,0.00018 -0.00012,0.0003 0,0.00012 0.00005,0.00022 0.00012,0.0003 0.00008,0.00008 0.00018,0.00012 0.0003,0.00012l0.00033 0 0.00002 0c0.00005,-0 0.00011,-0 0.00018,-0l0.00014 0c0.00014,0 0.00025,0.00011 0.00025,0.00025 0,0.00014 -0.00011,0.00025 -0.00025,0.00025l-0.00014 0c-0.00026,0 -0.0004,0 -0.00044,0.00003 0.00001,0.00004 0.00003,0.0001 0.00006,0.00018 0.00011,0.00028 0.00032,0.00052 0.0006,0.00069 0.00027,0.00017 0.00061,0.00027 0.00097,0.00027l0.00191 0c0.00036,0 0.0007,-0.0001 0.00097,-0.00027 0.00028,-0.00017 0.00049,-0.00041 0.0006,-0.00069 0.00003,-0.00008 0.00006,-0.00014 0.00006,-0.00018 -0.00001,-0.00001 -0.00004,-0.00001 -0.00007,-0.00002 -0.00008,-0.00001 -0.00021,-0.00001 -0.00037,-0.00001l-0.00148 0c-0.00014,0 -0.00025,-0.00011 -0.00025,-0.00025 0,-0.00014 0.00011,-0.00025 0.00025,-0.00025l0.00148 0c0.00006,0 0.00012,0 0.00017,0zm-0.00541 0.00041c-0.00009,-0.00004 -0.00017,-0.0001 -0.00024,-0.00017l-0 -0c-0.00017,-0.00017 -0.00027,-0.0004 -0.00027,-0.00065 0,-0.00025 0.0001,-0.00048 0.00027,-0.00065 0.00008,-0.00008 0.00016,-0.00014 0.00026,-0.00018 -0.00007,-0.00019 -0.00002,-0.00037 0.00006,-0.00067 0.00014,-0.00051 0.00042,-0.00095 0.00078,-0.00126 0.00036,-0.00031 0.0008,-0.00049 0.00127,-0.00049l0.00191 0c0.00047,0 0.0009,0.00018 0.00125,0.00048l0.00002 0.00001c0.00036,0.00031 0.00063,0.00075 0.00078,0.00126 0.00005,0.00016 0.00008,0.00029 0.00009,0.00041 0.00001,0.0001 0,0.00018 -0.00003,0.00027 0.00009,0.00004 0.00018,0.0001 0.00025,0.00017l0.00002 0.00002c0.00017,0.00017 0.00027,0.0004 0.00027,0.00065 0,0.00025 -0.0001,0.00048 -0.00027,0.00065l-0 0c-0.00007,0.00007 -0.00015,0.00013 -0.00024,0.00017 0.00001,0.00005 0.00001,0.00011 0.00001,0.00017 -0.00001,0.0001 -0.00005,0.00019 -0.0001,0.00032 -0.00015,0.00038 -0.00043,0.00071 -0.0008,0.00094 -0.00035,0.00022 -0.00078,0.00035 -0.00124,0.00035l-0.00191 0c-0.00046,0 -0.00089,-0.00013 -0.00124,-0.00035 -0.00036,-0.00023 -0.00065,-0.00055 -0.0008,-0.00094 -0.00005,-0.00013 -0.00009,-0.00022 -0.0001,-0.00032 -0.00001,-0.00006 -0.00001,-0.00011 0.00001,-0.00017zm0.00162 -0.00124l0.00014 0.00016c0.00011,0.00013 0.00019,0.00022 0.00026,0.00028 0.00003,0.00003 0.00005,0.00004 0.00006,0.00004 0.00004,0 0.00013,-0.00011 0.00032,-0.00032l0.00014 -0.00016 -0.00092 0z"/>
 </g>
</svg>
