<svg xmlns="http://www.w3.org/2000/svg" xmlns:xlink="http://www.w3.org/1999/xlink" xmlns:inkscape="http://www.inkscape.org/namespaces/inkscape" version="1.1" width="24.3631" height="15.8875" viewBox="0 0 24.3631 15.8875">
<g inkscape:groupmode="layer" inkscape:label="Camada 1">
<path transform="matrix(1,0,0,-1,1,14.8875)" d="M19.8295 5.3459C19.6747 5.3459 19.5197 5.3459 19.3649 5.3459 18.6678 5.3459 17.9708 5.3201 17.2738 5.3201L13.4274 5.2685C13.1434 4.1068 12.524 4.2874 11.2331 4.2874H11.2073 11.1815C9.8909 4.2874 9.2713 4.1068 8.9872 5.2685L5.1412 5.3201C4.4442 5.3201 3.7471 5.3459 3.0501 5.3459 2.8953 5.3459 2.7403 5.3459 2.5855 5.3459 2.6113 5.3201 2.6113 5.2943 2.6371 5.2427 2.6371 5.2169 2.6629 5.2169 2.6629 5.1911L2.7145 5.0363C2.7145 5.0105 2.7145 5.0105 2.7403 4.9847V4.9589C2.7403 4.9331 2.766 4.9331 2.766 4.9073 2.766 4.8815 2.7918 4.8557 2.7918 4.83L3.6437 2.6872C3.721 2.4806 3.9277 1.9386 4.0825 1.8096 4.2114 1.6549 4.8053 1.5772 5.0117 1.5772 6.0185 1.5256 7.0506 1.5514 8.0575 1.5514H11.181 11.2068 11.2326 14.3561C15.3629 1.5514 16.3953 1.4998 17.4022 1.5772 17.6088 1.5772 18.1766 1.6546 18.3314 1.8096 18.4861 1.9644 18.6928 2.4809 18.7702 2.6872L19.622 4.83C19.622 4.8557 19.622 4.8815 19.6478 4.9073 19.6478 4.9331 19.6736 4.9331 19.6736 4.9589V4.9847C19.6736 5.0105 19.6736 5.0105 19.6994 5.0363L19.751 5.1911C19.751 5.2169 19.7768 5.2169 19.7768 5.2427 19.8026 5.2685 19.8026 5.2943 19.8283 5.3459ZM11.1815 5.7589V5.7589H11.2073C11.4656 5.7589 11.7235 5.7589 11.9818 5.7589 12.0334 6.3527 12.0591 6.7399 12.937 6.7399L19.1066 6.8173C19.3907 6.8173 20.6039 6.7657 20.7845 6.946 20.7845 7.0492 20.5262 7.4106 20.4489 7.5399 20.3973 7.6173 20.3199 7.7723 20.2422 7.8239 20.2164 7.8239 20.2164 7.8497 20.1906 7.8497L19.4162 8.4694C19.3388 8.5467 19.2872 8.6241 19.2614 8.7276 19.1582 9.3988 19.0548 10.0959 18.9516 10.7668 18.9 11.1283 18.8742 11.5155 18.616 11.8253 18.0479 12.5481 17.0413 12.3415 16.2153 12.3415H11.1555 11.1297 11.1039 6.0443C5.2441 12.3415 4.2372 12.5481 3.6437 11.8253 3.3854 11.5155 3.3596 11.1283 3.308 10.7668 3.2049 10.0956 3.1014 9.3986 2.9982 8.7276 2.9724 8.6244 2.9208 8.5209 2.8434 8.4694L2.069 7.8497C2.0432 7.8239 2.0432 7.8239 2.0174 7.8239 1.94 7.7465 1.8626 7.6173 1.8108 7.5399 1.7334 7.4367 1.4751 7.0495 1.4751 6.946 1.6557 6.7657 2.8692 6.8173 3.153 6.8173L9.3223 6.7399C10.1999 6.7399 10.2257 6.3527 10.2776 5.7589 10.5358 5.7589 10.7938 5.7589 11.052 5.7589H11.0778ZM11.1815 13.8645H11.2073 13.35C14.7957 13.8645 16.2156 13.9161 17.6613 13.8645 18.6423 13.8387 19.5457 13.3226 20.0619 12.4705 20.5007 11.7476 20.5523 10.5086 20.6816 9.6565 20.6816 9.6307 20.6816 9.5791 20.7074 9.5533L20.7332 9.5275C21.4299 8.8563 22.1786 7.9787 22.3075 6.9976 22.4107 6.3524 22.4107 5.3201 21.9461 4.8294 21.6879 4.5711 21.4041 4.4422 21.0427 4.3906L20.8879 3.9518C20.6816 3.4356 20.4752 2.9191 20.2686 2.4029 19.7005 1.0089 19.3652 .1828 17.6871 .0539 16.293-.0493 14.7699 .0281 13.35 .0281H11.2073 11.1815 11.1557 9.013C7.5932 .0281 6.0704-.0493 4.6763 .0539 2.9985 .1828 2.6629 1.0091 2.0948 2.4029 1.8882 2.9191 1.6818 3.4356 1.4751 3.9518L1.3204 4.3906C.9848 4.4422 .6749 4.5711 .417 4.8294-.0476 5.3198-.0476 6.3524 .0556 6.9976 .2103 7.9787 .9332 8.8563 1.6302 9.5275L1.656 9.5533C1.656 9.5791 1.656 9.6307 1.6818 9.6565 1.8108 10.5083 1.8624 11.7218 2.3014 12.4705 2.8176 13.3223 3.6955 13.8129 4.7021 13.8645 6.1478 13.9161 7.5674 13.8645 9.013 13.8645H11.1557Z" fill-rule="evenodd"/>
</g>
</svg>
